<?xml version="1.0" standalone="no"?>
<!DOCTYPE svg PUBLIC "-//W3C//DTD SVG 20010904//EN"
 "http://www.w3.org/TR/2001/REC-SVG-20010904/DTD/svg10.dtd">
<svg version="1.0" xmlns="http://www.w3.org/2000/svg"
 width="980.000000pt" height="980.000000pt" viewBox="0 0 980.000000 980.000000"
 preserveAspectRatio="xMidYMid meet">

<g transform="translate(0.000000,980.000000) scale(0.100000,-0.100000)"
fill="#000000" stroke="none">
<path d="M4820 8030 c-186 -35 -324 -158 -381 -340 l-17 -55 -213 -5 c-174 -4
-220 -8 -244 -22 -70 -38 -105 -105 -105 -198 l0 -60 -322 0 c-178 0 -352 -5
-388 -10 -170 -27 -313 -161 -349 -328 -8 -38 -11 -717 -11 -2465 0 -2011 3
-2421 14 -2463 42 -160 175 -283 336 -314 34 -6 658 -10 1769 -10 1853 0 1768
-2 1873 51 59 30 140 110 173 170 58 108 55 -54 55 2569 0 2643 4 2470 -57
2582 -35 63 -120 143 -185 173 -84 38 -162 45 -505 45 l-323 0 0 60 c0 93 -35
160 -105 198 -24 14 -70 18 -244 22 l-213 5 -18 57 c-46 150 -152 260 -301
316 -65 24 -175 34 -239 22z m227 -180 c105 -52 164 -138 182 -266 16 -107 7
-104 295 -104 175 0 245 -3 254 -12 9 -9 12 -76 12 -242 0 -199 -2 -232 -17
-248 -15 -17 -55 -18 -871 -18 -782 0 -857 1 -874 17 -16 15 -18 36 -18 248 0
166 3 234 12 243 9 9 79 12 254 12 288 0 280 -3 294 103 12 84 30 128 76 184
97 118 260 152 401 83z m-1187 -763 c0 -102 3 -118 26 -165 19 -39 38 -59 72
-80 l47 -27 895 0 895 0 47 27 c34 21 53 41 72 80 23 47 26 63 26 166 l0 113
358 -3 c397 -3 393 -3 472 -74 23 -21 51 -56 63 -78 l22 -41 3 -2438 2 -2438
-21 -49 c-12 -28 -42 -69 -69 -94 -88 -83 64 -77 -1896 -74 l-1739 3 -40 22
c-55 29 -118 99 -139 154 -15 41 -16 220 -14 2479 l3 2435 22 40 c19 36 59 79
106 115 44 33 109 39 450 39 l337 1 0 -113z"/>
<path d="M4805 7747 c-60 -29 -87 -57 -114 -117 -40 -87 -22 -179 49 -251 49
-51 94 -69 170 -69 156 1 265 176 199 320 -38 85 -102 129 -198 137 -45 3 -66
-1 -106 -20z m150 -152 c53 -52 18 -135 -56 -135 -71 0 -105 85 -54 135 15 16
36 25 55 25 19 0 40 -9 55 -25z"/>
<path d="M5184 6449 c-12 -6 -27 -22 -33 -35 -16 -35 -15 -853 0 -888 19 -42
54 -48 231 -45 161 4 164 4 230 37 75 36 123 88 160 168 22 47 23 61 23 284
l0 235 -33 67 c-37 76 -82 120 -162 157 -52 24 -65 26 -225 28 -106 2 -178 -2
-191 -8z m364 -158 c90 -46 102 -83 102 -321 0 -149 -3 -199 -15 -227 -37 -88
-89 -112 -237 -113 l-108 0 0 340 0 340 110 0 c89 0 118 -4 148 -19z"/>
<path d="M6207 6450 c-85 -22 -172 -91 -215 -175 l-27 -50 0 -255 0 -255 27
-50 c32 -62 104 -130 166 -158 112 -51 276 -14 363 80 80 87 84 105 84 383 0
278 -4 296 -84 383 -72 78 -214 122 -314 97z m140 -151 c38 -14 83 -57 99 -96
20 -45 20 -420 0 -466 -18 -44 -78 -95 -121 -103 -82 -15 -167 24 -201 93 -16
32 -20 65 -22 213 -2 105 1 195 7 226 24 108 137 171 238 133z"/>
<path d="M4223 6432 c-88 -32 -144 -80 -191 -167 -27 -50 -27 -51 -30 -285 -3
-219 -2 -240 18 -292 29 -77 87 -140 165 -179 159 -78 353 -11 432 149 l28 57
0 250 0 250 -27 50 c-32 62 -104 130 -164 156 -65 29 -167 34 -231 11z m188
-155 c27 -15 52 -38 66 -63 22 -37 23 -50 23 -255 0 -208 -1 -217 -23 -250
-64 -95 -182 -114 -267 -43 -58 49 -64 72 -68 261 -4 185 5 257 39 304 48 68
150 88 230 46z"/>
<path d="M3210 6350 c-26 -26 -25 -60 1 -94 20 -25 24 -26 125 -26 l104 0 0
-315 0 -316 25 -24 c29 -30 64 -32 96 -6 l24 19 3 321 3 320 106 3 c102 3 107
4 126 30 22 29 18 65 -9 92 -13 14 -55 16 -300 16 -271 0 -285 -1 -304 -20z"/>
<path d="M3753 5058 l-174 -173 -77 83 c-42 45 -85 82 -94 82 -54 0 -96 -47
-82 -93 3 -11 53 -71 111 -133 149 -162 124 -168 385 94 224 223 229 232 187
286 -14 18 -30 26 -52 26 -27 0 -54 -23 -204 -172z"/>
<path d="M4370 5020 c-26 -26 -26 -81 -2 -103 17 -16 97 -17 945 -17 914 0
927 0 947 20 27 27 26 74 -2 100 -22 20 -30 20 -945 20 -910 0 -923 0 -943
-20z"/>
<path d="M3937 4471 c-10 -4 -95 -83 -187 -175 l-169 -169 -77 82 c-66 70 -81
81 -109 81 -36 0 -75 -37 -75 -71 0 -19 58 -91 163 -201 96 -102 81 -108 334
145 169 168 213 218 213 239 0 47 -51 86 -93 69z"/>
<path d="M4377 4269 c-35 -27 -37 -79 -5 -109 22 -20 30 -20 943 -20 l922 0
21 23 c28 30 29 78 1 103 -20 18 -52 19 -939 22 -917 2 -917 2 -943 -19z"/>
<path d="M3752 3548 l-174 -173 -71 76 c-40 42 -82 80 -93 83 -52 16 -105 -44
-85 -95 5 -13 58 -75 118 -138 102 -106 112 -114 139 -107 20 5 96 74 237 214
225 226 232 238 182 287 -48 49 -63 40 -253 -147z"/>
<path d="M4370 3510 c-30 -30 -27 -83 7 -109 26 -21 26 -21 945 -19 l920 3 19
24 c26 32 24 73 -4 99 l-23 22 -922 0 c-909 0 -922 0 -942 -20z"/>
<path d="M3753 2788 l-173 -173 -77 83 c-58 61 -85 82 -103 82 -58 0 -93 -57
-66 -108 9 -15 59 -73 113 -130 84 -87 103 -102 129 -102 28 0 57 26 243 212
225 226 234 240 191 286 -13 14 -33 22 -53 22 -28 0 -53 -21 -204 -172z"/>
<path d="M4370 2750 c-11 -11 -20 -33 -20 -50 0 -17 9 -39 20 -50 20 -20 33
-20 945 -20 912 0 925 0 945 20 11 11 20 33 20 50 0 17 -9 39 -20 50 -20 20
-33 20 -945 20 -912 0 -925 0 -945 -20z"/>
</g>
</svg>
